<svg width="24" height="24" viewBox="0 0 24 24" fill="none" xmlns="http://www.w3.org/2000/svg">
<g clip-path="url(#clip0_2304_215)">
<path d="M12 9C13.933 9 15.5 7.433 15.5 5.5C15.5 3.567 13.933 2 12 2C10.067 2 8.5 3.567 8.5 5.5C8.5 7.433 10.067 9 12 9Z" stroke="#757575" stroke-width="1.5" stroke-linecap="round" stroke-linejoin="round"/>
<path d="M2 20.5C2 16.0815 4.5 12 11 12.5" stroke="#757575" stroke-width="1.5" stroke-linecap="round" stroke-linejoin="round"/>
<path d="M17 21.5C19.4853 21.5 21.5 19.4853 21.5 17C21.5 14.5147 19.4853 12.5 17 12.5C14.5147 12.5 12.5 14.5147 12.5 17C12.5 19.4853 14.5147 21.5 17 21.5Z" stroke="#757575" stroke-width="1.5"/>
<path d="M16.5 15.5V17.5H18.5" stroke="#757575" stroke-width="1.5" stroke-linecap="round" stroke-linejoin="round"/>
</g>
<defs>
<clipPath id="clip0_2304_215">
<rect width="24" height="24" fill="white"/>
</clipPath>
</defs>
</svg>
