<svg xmlns="http://www.w3.org/2000/svg" fill="none" viewBox="-0.43 -0.43 12 12" id="Dashboard-3--Streamline-Core" height="12" width="12">
  <desc>
    Dashboard 3 Streamline Icon: https://streamlinehq.com
  </desc>
  <g id="dashboard-3--app-application-dashboard-home-layout-vertical">
    <path id="Vector" stroke="currentColor" stroke-linecap="round" stroke-linejoin="round" d="M10.344285714285714 5.172142857142857H7.161428571428571c-0.21972854285714286 0 -0.39785714285714285 0.1781286 -0.39785714285714285 0.39785714285714285v4.774285714285714c0 0.2196967142857143 0.1781286 0.39785714285714285 0.39785714285714285 0.39785714285714285h3.182857142857143c0.2196967142857143 0 0.39785714285714285 -0.17816042857142855 0.39785714285714285 -0.39785714285714285V5.57c0 -0.21972854285714286 -0.17816042857142855 -0.39785714285714285 -0.39785714285714285 -0.39785714285714285Z" stroke-width="0.86"></path>
    <path id="Vector_2" stroke="currentColor" stroke-linecap="round" stroke-linejoin="round" d="M10.344285714285714 0.39785714285714285H7.161428571428571c-0.21972854285714286 0 -0.39785714285714285 0.17812700857142857 -0.39785714285714285 0.39785714285714285v1.5993857142857142c0 0.21972854285714286 0.1781286 0.39785714285714285 0.39785714285714285 0.39785714285714285h3.182857142857143c0.2196967142857143 0 0.39785714285714285 -0.1781286 0.39785714285714285 -0.39785714285714285V0.7957142857142857c0 -0.21973013428571428 -0.17816042857142855 -0.39785714285714285 -0.39785714285714285 -0.39785714285714285Z" stroke-width="0.86"></path>
    <path id="Vector_3" stroke="currentColor" stroke-linecap="round" stroke-linejoin="round" d="M3.9785714285714286 0.39785714285714285H0.7957142857142857C0.5759841514285714 0.39785714285714285 0.39785714285714285 0.5759841514285714 0.39785714285714285 0.7957142857142857v4.774285714285714c0 0.21972854285714286 0.17812700857142857 0.39785714285714285 0.39785714285714285 0.39785714285714285h3.182857142857143c0.21972854285714286 0 0.39785714285714285 -0.1781286 0.39785714285714285 -0.39785714285714285V0.7957142857142857c0 -0.21973013428571428 -0.1781286 -0.39785714285714285 -0.39785714285714285 -0.39785714285714285Z" stroke-width="0.86"></path>
    <path id="Vector_4" stroke="currentColor" stroke-linecap="round" stroke-linejoin="round" d="M3.9785714285714286 8.347042857142858H0.7957142857142857c-0.21973013428571428 0 -0.39785714285714285 0.17808085714285715 -0.39785714285714285 0.39785714285714285V10.344285714285714c0 0.2196967142857143 0.17812700857142857 0.39785714285714285 0.39785714285714285 0.39785714285714285h3.182857142857143c0.21972854285714286 0 0.39785714285714285 -0.17816042857142855 0.39785714285714285 -0.39785714285714285v-1.5993857142857142c0 -0.2197762857142857 -0.1781286 -0.39785714285714285 -0.39785714285714285 -0.39785714285714285Z" stroke-width="0.86"></path>
  </g>
</svg>