<svg width="16" height="16" viewBox="0 0 16 16" fill="none" xmlns="http://www.w3.org/2000/svg">
<g clip-path="url(#clip0_2304_263)">
<path d="M10 2.66666V1.33333M10 2.66666V3.99999M10 2.66666H7M2 6.66666V12.6667C2 13.0203 2.14048 13.3594 2.39052 13.6095C2.64057 13.8595 2.97971 14 3.33333 14H12.6667C13.0203 14 13.3594 13.8595 13.6095 13.6095C13.8595 13.3594 14 13.0203 14 12.6667V6.66666M2 6.66666H14M2 6.66666V3.99999C2 3.64637 2.14048 3.30723 2.39052 3.05719C2.64057 2.80714 2.97971 2.66666 3.33333 2.66666H4.66667M14 6.66666V3.99999C14 3.64637 13.8595 3.30723 13.6095 3.05719C13.3594 2.80714 13.0203 2.66666 12.6667 2.66666H12.3333M4.66667 1.33333V3.99999" stroke="#757575" stroke-linecap="round" stroke-linejoin="round"/>
</g>
<defs>
<clipPath id="clip0_2304_263">
<rect width="16" height="16" fill="white"/>
</clipPath>
</defs>
</svg>
