<svg width="32" height="32" viewBox="0 0 32 32" fill="none" xmlns="http://www.w3.org/2000/svg">
<rect width="32" height="32" rx="16" fill="#72B6B6"/>
<path d="M19.6666 10.5C19.6666 8.77116 19.6666 7.90766 19.1295 7.37049C18.5923 6.83333 17.7288 6.83333 16 6.83333C14.2711 6.83333 13.4076 6.83333 12.8705 7.37049C12.3333 7.90766 12.3333 8.77116 12.3333 10.5M6.83331 17.8333C6.83331 14.3766 6.83331 12.6477 7.90765 11.5743C8.98106 10.5 10.7099 10.5 14.1666 10.5H17.8333C21.2901 10.5 23.0189 10.5 24.0923 11.5743C25.1666 12.6477 25.1666 14.3766 25.1666 17.8333C25.1666 21.2901 25.1666 23.0189 24.0923 24.0923C23.0189 25.1667 21.2901 25.1667 17.8333 25.1667H14.1666C10.7099 25.1667 8.98106 25.1667 7.90765 24.0923C6.83331 23.0189 6.83331 21.2901 6.83331 17.8333Z" stroke="white" stroke-width="1.5"/>
<path d="M16 20.8886C17.0129 20.8886 17.8333 20.2047 17.8333 19.3614C17.8333 18.5181 17.0129 17.8333 16 17.8333C14.987 17.8333 14.1666 17.1495 14.1666 16.3052C14.1666 15.4619 14.987 14.7781 16 14.7781M16 20.8886C14.987 20.8886 14.1666 20.2047 14.1666 19.3614M16 20.8886V21.5M16 14.7781V14.1667M16 14.7781C17.0129 14.7781 17.8333 15.4619 17.8333 16.3052" stroke="white" stroke-width="1.5" stroke-linecap="round"/>
</svg>
