<svg width="24" height="24" viewBox="0 0 24 24" fill="none" xmlns="http://www.w3.org/2000/svg">
<g clip-path="url(#clip0_2304_1196)">
<g clip-path="url(#clip1_2304_1196)">
<path fill-rule="evenodd" clip-rule="evenodd" d="M16.86 9.22414C16.6792 9.40472 16.4341 9.50615 16.1786 9.50615C15.923 9.50615 15.6779 9.40472 15.4971 9.22414L12.9643 6.69129V16.1786C12.9643 16.4343 12.8627 16.6796 12.6819 16.8604C12.501 17.0413 12.2557 17.1429 12 17.1429C11.7443 17.1429 11.499 17.0413 11.3181 16.8604C11.1373 16.6796 11.0357 16.4343 11.0357 16.1786V6.69129L8.50286 9.22414C8.32006 9.39447 8.07829 9.4872 7.82847 9.4828C7.57866 9.47839 7.3403 9.37719 7.16363 9.20051C6.98695 9.02384 6.88575 8.78549 6.88135 8.53567C6.87694 8.28586 6.96967 8.04408 7.14 7.86129L11.3186 3.68271L12 3L12.6814 3.68143L16.86 7.86C16.9496 7.94955 17.0207 8.05588 17.0692 8.17291C17.1177 8.28995 17.1427 8.41539 17.1427 8.54207C17.1427 8.66876 17.1177 8.7942 17.0692 8.91123C17.0207 9.02826 16.9496 9.13459 16.86 9.22414ZM4.92857 14.25C4.92857 13.9943 4.82698 13.749 4.64614 13.5681C4.4653 13.3873 4.22003 13.2857 3.96429 13.2857C3.70854 13.2857 3.46327 13.3873 3.28243 13.5681C3.10159 13.749 3 13.9943 3 14.25V18.4286C3 19.1106 3.27092 19.7646 3.75315 20.2468C4.23539 20.7291 4.88944 21 5.57143 21H18.4286C19.1106 21 19.7646 20.7291 20.2468 20.2468C20.7291 19.7646 21 19.1106 21 18.4286V14.25C21 13.9943 20.8984 13.749 20.7176 13.5681C20.5367 13.3873 20.2915 13.2857 20.0357 13.2857C19.78 13.2857 19.5347 13.3873 19.3539 13.5681C19.173 13.749 19.0714 13.9943 19.0714 14.25V18.4286C19.0714 18.5991 19.0037 18.7626 18.8831 18.8831C18.7626 19.0037 18.5991 19.0714 18.4286 19.0714H5.57143C5.40093 19.0714 5.23742 19.0037 5.11686 18.8831C4.9963 18.7626 4.92857 18.5991 4.92857 18.4286V14.25Z" fill="white"/>
</g>
</g>
<defs>
<clipPath id="clip0_2304_1196">
<rect width="24" height="24" fill="white"/>
</clipPath>
<clipPath id="clip1_2304_1196">
<rect width="24" height="24" fill="white"/>
</clipPath>
</defs>
</svg>
