<svg width="20" height="20" viewBox="0 0 20 20" fill="none" xmlns="http://www.w3.org/2000/svg">
<g clip-path="url(#clip0_2304_182)">
<path fill-rule="evenodd" clip-rule="evenodd" d="M10.5815 1C10.5815 0.734784 10.4762 0.48043 10.2886 0.292893C10.1011 0.105357 9.84674 0 9.58152 0C9.31631 0 9.06195 0.105357 8.87442 0.292893C8.68688 0.48043 8.58152 0.734784 8.58152 1V1.75H8.02452C6.95255 1.74993 5.92085 2.15839 5.13945 2.89224C4.35804 3.62608 3.88568 4.63014 3.81852 5.7L3.59752 9.234C3.51325 10.5814 3.06082 11.8799 2.28952 12.988C2.13016 13.2171 2.03278 13.4835 2.00687 13.7613C1.98095 14.0392 2.02738 14.319 2.14164 14.5736C2.25589 14.8281 2.43409 15.0488 2.65889 15.2142C2.8837 15.3795 3.14746 15.4838 3.42452 15.517L6.83152 15.925V17C6.83152 17.7293 7.12125 18.4288 7.63698 18.9445C8.15271 19.4603 8.85218 19.75 9.58152 19.75C10.3109 19.75 11.0103 19.4603 11.5261 18.9445C12.0418 18.4288 12.3315 17.7293 12.3315 17V15.925L15.7385 15.516C16.0154 15.4827 16.279 15.3784 16.5037 15.2131C16.7283 15.0478 16.9064 14.8273 17.0207 14.5729C17.1349 14.3184 17.1814 14.0388 17.1556 13.7611C17.1298 13.4834 17.0326 13.2171 16.8735 12.988C16.1022 11.88 15.6497 10.5815 15.5655 9.234L15.3445 5.701C15.2776 4.63096 14.8054 3.62665 14.0239 2.8926C13.2425 2.15855 12.2107 1.74995 11.1385 1.75H10.5815V1ZM8.02452 3.25C7.3341 3.24992 6.66959 3.51297 6.1663 3.98561C5.66301 4.45825 5.35877 5.10493 5.31552 5.794L5.09552 9.328C4.99387 10.949 4.44944 12.511 3.52152 13.844C3.50999 13.8606 3.50294 13.8798 3.50106 13.8999C3.49918 13.92 3.50252 13.9403 3.51078 13.9587C3.51903 13.9771 3.53191 13.9931 3.54816 14.005C3.56441 14.017 3.58349 14.0246 3.60352 14.027L7.34052 14.476C8.82952 14.654 10.3335 14.654 11.8225 14.476L15.5595 14.027C15.5796 14.0246 15.5986 14.017 15.6149 14.005C15.6311 13.9931 15.644 13.9771 15.6523 13.9587C15.6605 13.9403 15.6639 13.92 15.662 13.8999C15.6601 13.8798 15.6531 13.8606 15.6415 13.844C14.714 12.5109 14.1699 10.9489 14.0685 9.328L13.8475 5.794C13.8043 5.10493 13.5 4.45825 12.9967 3.98561C12.4935 3.51297 11.8289 3.24992 11.1385 3.25H8.02452ZM9.58152 18.25C8.89152 18.25 8.33152 17.69 8.33152 17V16.25H10.8315V17C10.8315 17.69 10.2715 18.25 9.58152 18.25Z" fill="#2F897F"/>
</g>
<defs>
<clipPath id="clip0_2304_182">
<rect width="20" height="20" fill="white"/>
</clipPath>
</defs>
</svg>
