<svg width="24" height="24" viewBox="0 0 24 24" fill="none" xmlns="http://www.w3.org/2000/svg">
<g clip-path="url(#clip0_2304_241)">
<path d="M16.95 20.65L18.1 19.5L16.5 17.9L15.35 19.05C15.1167 19.2833 15 19.55 15 19.85C15 20.15 15.1167 20.4167 15.35 20.65C15.5833 20.8833 15.85 21 16.15 21C16.45 21 16.7167 20.8833 16.95 20.65ZM19.5 18.1L20.65 16.95C20.8833 16.7167 21 16.45 21 16.15C21 15.85 20.8833 15.5833 20.65 15.35C20.4167 15.1167 20.15 15 19.85 15C19.55 15 19.2833 15.1167 19.05 15.35L17.9 16.5L19.5 18.1ZM18.375 22.075C17.7583 22.6917 17.0167 23 16.15 23C15.2833 23 14.5417 22.6917 13.925 22.075C13.3083 21.4583 13 20.7167 13 19.85C13 18.9833 13.3083 18.2417 13.925 17.625L17.625 13.925C18.2417 13.3083 18.9833 13 19.85 13C20.7167 13 21.4583 13.3083 22.075 13.925C22.6917 14.5417 23 15.2833 23 16.15C23 17.0167 22.6917 17.7583 22.075 18.375L18.375 22.075ZM5 21C4.45 21 3.979 20.804 3.587 20.412C3.195 20.02 2.99934 19.5493 3 19V5C3 4.45 3.196 3.979 3.588 3.587C3.98 3.195 4.45067 2.99933 5 3H9.2C9.41667 2.4 9.77934 1.91667 10.288 1.55C10.7967 1.18333 11.3673 1 12 1C12.6333 1 13.2043 1.18333 13.713 1.55C14.2217 1.91667 14.584 2.4 14.8 3H19C19.55 3 20.021 3.196 20.413 3.588C20.805 3.98 21.0007 4.45067 21 5V11.125C20.6667 11.0417 20.3333 11 20 11C19.6667 11 19.3333 11.025 19 11.075V5H5V19H11.075C11.025 19.3333 11 19.6667 11 20C11 20.3333 11.0417 20.6667 11.125 21H5ZM12 4.25C12.2167 4.25 12.3957 4.179 12.537 4.037C12.6783 3.895 12.7493 3.716 12.75 3.5C12.75 3.28333 12.679 3.10433 12.537 2.963C12.395 2.82167 12.216 2.75067 12 2.75C11.7833 2.75 11.6043 2.821 11.463 2.963C11.3217 3.105 11.2507 3.284 11.25 3.5C11.25 3.71667 11.321 3.89567 11.463 4.037C11.605 4.17833 11.784 4.24933 12 4.25ZM7 9V7H17V9H7ZM7 13V11H17V11.85C16.8667 11.9333 16.7373 12.0293 16.612 12.138C16.4867 12.2467 16.3577 12.3673 16.225 12.5L15.725 13H7ZM7 17V15H13.725L12.5 16.225C12.3667 16.3583 12.246 16.4877 12.138 16.613C12.03 16.7383 11.934 16.8673 11.85 17H7Z" fill="#757575"/>
</g>
<defs>
<clipPath id="clip0_2304_241">
<rect width="24" height="24" fill="white"/>
</clipPath>
</defs>
</svg>
