<svg width="32" height="32" viewBox="0 0 32 32" fill="none" xmlns="http://www.w3.org/2000/svg">
<rect width="32" height="32" rx="16" fill="#2F897F"/>
<g clip-path="url(#clip0_2304_607)">
<path d="M16.3125 14.625C15.4008 14.625 14.5265 14.2628 13.8818 13.6182C13.2372 12.9735 12.875 12.0992 12.875 11.1875C12.875 10.2758 13.2372 9.40148 13.8818 8.75682C14.5265 8.11216 15.4008 7.75 16.3125 7.75C17.2242 7.75 18.0985 8.11216 18.7432 8.75682C19.3878 9.40148 19.75 10.2758 19.75 11.1875C19.75 12.0992 19.3878 12.9735 18.7432 13.6182C18.0985 14.2628 17.2242 14.625 16.3125 14.625ZM16.3125 9.125C15.1713 9.125 14.25 10.0463 14.25 11.1875C14.25 12.3288 15.1713 13.25 16.3125 13.25C17.4538 13.25 18.375 12.3288 18.375 11.1875C18.375 10.0463 17.4538 9.125 16.3125 9.125Z" fill="white"/>
<path d="M24.5625 20.125C24.1775 20.125 23.875 19.8225 23.875 19.4375C23.875 19.0525 24.1775 18.75 24.5625 18.75C24.9475 18.75 25.25 18.4475 25.25 18.0625C25.25 17.1508 24.8878 16.2765 24.2432 15.6318C23.5985 14.9872 22.7242 14.625 21.8125 14.625H20.4375C20.0525 14.625 19.75 14.3225 19.75 13.9375C19.75 13.5525 20.0525 13.25 20.4375 13.25C21.5787 13.25 22.5 12.3288 22.5 11.1875C22.5 10.0462 21.5787 9.125 20.4375 9.125C20.0525 9.125 19.75 8.8225 19.75 8.4375C19.75 8.0525 20.0525 7.75 20.4375 7.75C21.3492 7.75 22.2235 8.11216 22.8682 8.75682C23.5128 9.40148 23.875 10.2758 23.875 11.1875C23.875 12.04 23.5725 12.81 23.05 13.415C25.0987 13.965 26.625 15.835 26.625 18.0625C26.625 19.2037 25.7038 20.125 24.5625 20.125ZM8.0625 20.125C6.92125 20.125 6 19.2037 6 18.0625C6 15.835 7.5125 13.965 9.575 13.415C9.06625 12.81 8.75 12.04 8.75 11.1875C8.75 10.2758 9.11216 9.40148 9.75682 8.75682C10.4015 8.11216 11.2758 7.75 12.1875 7.75C12.5725 7.75 12.875 8.0525 12.875 8.4375C12.875 8.8225 12.5725 9.125 12.1875 9.125C11.0462 9.125 10.125 10.0462 10.125 11.1875C10.125 12.3288 11.0462 13.25 12.1875 13.25C12.5725 13.25 12.875 13.5525 12.875 13.9375C12.875 14.3225 12.5725 14.625 12.1875 14.625H10.8125C9.90082 14.625 9.02648 14.9872 8.38182 15.6318C7.73716 16.2765 7.375 17.1508 7.375 18.0625C7.375 18.4475 7.6775 18.75 8.0625 18.75C8.4475 18.75 8.75 19.0525 8.75 19.4375C8.75 19.8225 8.4475 20.125 8.0625 20.125ZM20.4375 24.25H12.1875C11.0462 24.25 10.125 23.3287 10.125 22.1875V20.8125C10.125 18.1588 12.2838 16 14.9375 16H17.6875C20.3412 16 22.5 18.1588 22.5 20.8125V22.1875C22.5 23.3287 21.5787 24.25 20.4375 24.25ZM14.9375 17.375C14.0258 17.375 13.1515 17.7372 12.5068 18.3818C11.8622 19.0265 11.5 19.9008 11.5 20.8125V22.1875C11.5 22.5725 11.8025 22.875 12.1875 22.875H20.4375C20.8225 22.875 21.125 22.5725 21.125 22.1875V20.8125C21.125 19.9008 20.7628 19.0265 20.1182 18.3818C19.4735 17.7372 18.5992 17.375 17.6875 17.375H14.9375Z" fill="white"/>
</g>
<defs>
<clipPath id="clip0_2304_607">
<rect width="20.625" height="22" fill="white" transform="translate(6 5)"/>
</clipPath>
</defs>
</svg>
